# xmcd
#
# Track frame offsets:
#   150
#   17122
#   33243
#   47697
#   62412
#   79663
#   96174
#   111651
#   125476
#   141926
#   158283
#   176815
#   190220
#   209354
#
# Disc length: 3016 seconds
#
# Revision: 0
# Processed by: cddbd v1.5.1PL0 Copyright (c) Steve Scherf et al.
# Submitted via: uFREEDB ActiveX Control 1.5
#
DISCID=bc0bc60e
DTITLE=grupo molejo - warner 25 anos
DYEAR=1900
DGENRE=Alternative
TTITLE0=brincadeira de criança
TTITLE1=dança da vassoura
TTITLE2=não quero saber de ti-ti-ti
TTITLE3=clínica geral
TTITLE4=sobe e desce
TTITLE5=cilada
TTITLE6=samba diferente
TTITLE7=doidinha por meu samba
TTITLE8=caçamba
TTITLE9=paparico
TTITLE10=em busca da felicidade
TTITLE11=pensamento verde
TTITLE12=polivalência
TTITLE13=linha de passe
EXTD=
EXTT0=
EXTT1=
EXTT2=
EXTT3=
EXTT4=
EXTT5=
EXTT6=
EXTT7=
EXTT8=
EXTT9=
EXTT10=
EXTT11=
EXTT12=
EXTT13=
PLAYORDER=
